<?xml version="1.0" standalone="no"?>
<!DOCTYPE svg PUBLIC "-//W3C//DTD SVG 20010904//EN"
 "http://www.w3.org/TR/2001/REC-SVG-20010904/DTD/svg10.dtd">
<svg version="1.0" xmlns="http://www.w3.org/2000/svg"
 width="1512.000000pt" height="2016.000000pt" viewBox="0 0 1512.000000 2016.000000"
 preserveAspectRatio="xMidYMid meet">

<g transform="translate(0.000000,2016.000000) scale(0.100000,-0.100000)"
fill="#000000" stroke="none">
<path d="M0 10080 l0 -10080 7560 0 7560 0 0 10080 0 10080 -7560 0 -7560 0 0
-10080z m6090 6969 c91 -11 211 -24 268 -29 56 -6 122 -14 146 -20 23 -5 112
-16 197 -25 85 -9 179 -20 209 -25 30 -4 84 -11 120 -15 36 -3 112 -14 170
-25 58 -10 155 -22 215 -25 61 -3 128 -10 150 -15 22 -5 52 -11 68 -15 15 -3
27 -10 27 -16 0 -8 -32 -10 -107 -6 -221 12 -400 26 -473 37 -41 5 -112 12
-156 14 -45 2 -86 6 -92 10 -5 3 -41 7 -78 7 -38 1 -73 5 -79 9 -5 4 -48 10
-95 14 -47 3 -110 13 -140 21 -30 8 -72 15 -92 15 -21 0 -70 7 -110 15 -98 19
-264 45 -294 45 -13 0 -24 4 -24 9 0 4 -25 11 -55 14 -29 3 -62 10 -72 16 -30
17 114 13 297 -10z m550 -230 c0 -4 72 -10 160 -14 116 -5 160 -11 160 -20 0
-8 38 -16 120 -25 66 -7 120 -17 120 -21 0 -5 18 -9 40 -9 36 0 40 -3 40 -24
0 -23 4 -24 80 -31 44 -4 80 -11 80 -16 0 -5 18 -9 40 -9 26 0 40 -4 40 -13 0
-20 85 -57 130 -57 31 0 42 -5 51 -22 24 -44 69 -78 105 -78 l34 0 0 -80 c0
-77 1 -80 23 -80 13 0 33 -9 45 -20 13 -12 35 -20 57 -20 19 0 35 -4 35 -10 0
-5 18 -10 40 -10 22 0 40 -5 40 -11 0 -6 9 -8 23 -4 16 5 18 4 8 -3 -11 -8 -9
-15 14 -36 21 -19 31 -23 36 -14 10 16 79 -15 79 -35 0 -14 60 -47 85 -47 13
0 36 -19 111 -90 12 -11 29 -20 38 -20 10 0 31 -13 47 -30 16 -16 36 -27 43
-24 8 3 30 -11 50 -30 19 -20 40 -36 45 -36 6 0 17 -13 26 -30 8 -16 26 -35
39 -42 30 -16 76 -82 76 -108 0 -14 7 -20 23 -20 24 0 41 -15 65 -57 7 -14 8
-23 2 -23 -5 0 -10 -5 -10 -12 0 -9 3 -9 12 0 19 19 27 14 44 -29 12 -27 19
-36 25 -28 5 9 11 5 20 -14 7 -15 23 -34 36 -42 12 -9 23 -25 23 -37 0 -11 12
-32 27 -46 26 -24 26 -26 8 -32 -19 -7 -18 -9 13 -36 36 -32 40 -44 15 -44
-14 0 -14 -2 -2 -17 8 -10 24 -35 34 -56 11 -21 30 -45 43 -53 25 -17 29 -34
7 -34 -14 0 -13 -3 2 -24 14 -18 22 -22 36 -15 13 8 19 5 24 -8 4 -10 12 -22
20 -26 7 -4 13 -23 13 -42 0 -19 5 -37 10 -40 6 -3 10 -24 10 -46 0 -28 4 -39
15 -39 11 0 15 -12 15 -50 0 -36 4 -52 15 -56 8 -4 15 -14 15 -24 0 -11 5 -22
10 -25 6 -3 10 -28 10 -55 0 -41 4 -52 30 -73 17 -14 30 -35 30 -47 0 -12 10
-30 23 -41 19 -16 20 -20 7 -29 -13 -9 -10 -15 18 -40 27 -25 32 -37 32 -75 0
-32 4 -45 14 -45 15 0 41 -54 39 -82 -1 -11 5 -22 13 -25 8 -3 14 -11 14 -18
0 -7 7 -12 16 -11 9 0 19 -5 21 -11 3 -8 -4 -13 -16 -13 -28 0 -27 -27 2 -51
19 -16 20 -20 7 -29 -13 -9 -10 -15 18 -40 24 -22 32 -38 32 -64 0 -19 11 -58
25 -88 15 -33 25 -71 25 -101 0 -33 5 -49 15 -53 8 -4 15 -14 15 -23 0 -9 11
-38 25 -65 20 -40 25 -64 25 -128 0 -63 3 -78 15 -78 12 0 15 -16 15 -80 0
-47 4 -80 10 -80 6 0 10 -18 10 -40 0 -29 4 -40 15 -40 12 0 15 -16 15 -80 0
-64 3 -80 15 -80 17 0 17 -1 15 -197 -1 -80 3 -123 9 -123 8 0 11 -151 11
-480 0 -420 2 -480 15 -480 13 0 15 -38 15 -280 0 -242 2 -280 15 -280 13 0
15 -20 15 -120 0 -73 4 -120 10 -120 6 0 10 -33 10 -80 0 -79 0 -80 -25 -80
-22 0 -25 -4 -25 -40 0 -36 3 -40 25 -40 23 0 25 -4 25 -40 0 -22 5 -40 10
-40 6 0 10 -18 10 -40 0 -22 -4 -40 -10 -40 -5 0 -10 18 -10 40 0 38 -2 40
-30 40 -34 0 -37 -10 -14 -45 9 -13 13 -28 11 -32 -7 -11 14 -38 36 -46 10 -4
17 -15 16 -24 -3 -22 10 -84 21 -98 4 -5 11 -39 15 -75 7 -69 31 -146 52 -168
7 -7 13 -28 13 -46 0 -19 9 -62 20 -96 11 -34 20 -70 20 -79 0 -9 17 -68 36
-131 20 -63 38 -131 41 -150 2 -19 8 -44 12 -55 5 -11 14 -40 21 -65 7 -25 19
-65 27 -90 8 -25 21 -74 28 -110 7 -36 17 -78 23 -95 6 -16 15 -48 21 -70 6
-22 17 -62 25 -90 8 -27 26 -95 41 -150 26 -102 45 -171 75 -285 44 -161 159
-618 175 -697 8 -34 19 -71 24 -82 6 -11 11 -32 11 -48 0 -15 6 -48 14 -73 8
-25 22 -77 31 -116 22 -98 22 -98 48 -204 14 -52 32 -129 41 -170 18 -83 44
-174 56 -205 5 -11 11 -31 14 -45 16 -82 42 -180 96 -365 21 -69 44 -229 37
-248 -3 -7 4 -51 15 -97 11 -47 23 -107 28 -135 24 -145 43 -268 65 -435 13
-102 31 -230 39 -285 33 -221 49 -434 38 -498 -25 -140 -131 -447 -232 -672
-10 -22 -36 -80 -58 -130 -50 -114 -169 -357 -223 -455 -93 -170 -270 -442
-368 -565 -31 -39 -69 -88 -86 -110 -126 -169 -339 -395 -590 -626 -77 -72
-260 -220 -354 -289 -85 -61 -319 -217 -341 -227 -8 -4 -46 -27 -85 -53 -129
-85 -453 -257 -612 -324 -34 -14 -78 -35 -96 -45 -60 -34 -71 -39 -141 -70
-37 -17 -73 -31 -80 -31 -6 0 -22 -6 -36 -13 -14 -7 -45 -19 -70 -26 -25 -7
-52 -16 -60 -20 -8 -4 -53 -19 -100 -34 -47 -14 -152 -47 -235 -73 -280 -87
-625 -167 -895 -208 -307 -46 -347 -50 -580 -50 -293 -1 -276 -8 -435 174 -85
98 -298 334 -361 400 -71 76 -137 147 -190 209 -16 18 -54 46 -84 62 -88 46
-117 77 -188 205 -60 107 -197 340 -210 355 -20 23 -92 136 -92 143 0 4 -14
27 -30 51 -17 24 -30 48 -30 54 0 6 -4 11 -8 11 -4 0 -13 12 -19 27 -13 32
-55 105 -64 113 -7 6 -30 49 -53 98 -8 17 -20 32 -25 32 -6 0 -11 7 -11 15 0
9 -18 45 -40 81 -22 36 -40 69 -40 73 0 4 -13 25 -30 47 -16 21 -30 44 -30 49
0 6 -9 18 -20 28 -11 9 -20 26 -20 37 0 18 -10 24 -32 21 -4 0 -10 9 -13 20
-6 19 -12 21 -59 15 -28 -3 -61 -6 -73 -6 -18 0 -23 -6 -23 -25 0 -22 -4 -25
-40 -25 -29 0 -40 -4 -40 -15 0 -11 -11 -15 -40 -15 -29 0 -40 4 -40 15 0 12
-16 15 -80 15 -79 0 -80 0 -80 25 0 25 -1 25 -85 25 -73 0 -87 3 -103 20 -9
11 -28 31 -41 44 -13 13 -30 30 -38 39 -9 8 -27 26 -40 40 -14 13 -32 31 -40
40 -105 105 -111 110 -127 104 -9 -4 -12 0 -9 12 5 21 -40 78 -97 121 -21 17
-23 21 -10 29 13 9 11 15 -13 38 -23 23 -29 26 -37 13 -8 -13 -9 -13 -14 0 -2
8 -4 22 -4 30 1 23 -40 110 -52 110 -5 0 -10 7 -10 16 0 23 -59 144 -71 144
-5 0 -9 11 -9 25 0 15 -6 25 -14 25 -8 0 -21 18 -30 40 -9 22 -23 40 -31 40
-11 0 -15 11 -15 40 0 28 -4 40 -14 40 -19 0 -36 53 -36 113 0 38 -3 48 -14
44 -10 -4 -12 0 -9 13 3 11 -2 27 -11 36 -9 9 -14 24 -11 34 4 12 -4 26 -25
43 -19 16 -30 35 -30 51 0 14 -5 28 -11 32 -6 3 -9 14 -6 24 8 31 -33 165 -52
171 -6 2 -12 29 -12 59 -1 31 -8 60 -15 68 -17 16 -18 32 -4 32 7 0 6 8 -2 23
-6 12 -13 36 -14 52 -3 43 -27 101 -52 128 -15 16 -22 36 -22 65 0 41 -10 69
-40 105 -12 16 -12 19 0 27 12 7 12 12 2 22 -7 7 -12 37 -12 70 0 43 -4 60
-15 64 -10 4 -15 21 -15 53 -1 25 -7 57 -15 71 -8 14 -14 51 -15 82 0 56 -14
86 -23 51 -3 -10 -5 19 -6 65 -1 63 -4 82 -15 82 -11 0 -16 23 -20 98 -11 181
-17 222 -32 222 -9 0 -14 11 -14 34 0 18 -7 47 -15 62 -8 16 -15 45 -15 64 0
82 -24 241 -35 236 -16 -6 -27 109 -18 182 3 32 2 57 -4 60 -9 7 -30 138 -40
262 -3 30 -9 58 -14 61 -10 6 -30 241 -29 337 1 37 -3 62 -9 62 -8 0 -11 88
-11 273 0 149 -4 367 -10 482 -15 304 -26 1047 -19 1205 4 74 12 230 18 345 6
116 13 253 16 305 2 52 9 151 15 220 6 69 15 190 21 270 19 281 28 376 45 500
9 69 19 157 21 195 4 73 16 188 32 315 5 41 13 105 17 143 3 37 10 67 14 67 4
0 10 51 13 114 4 70 13 130 23 156 14 35 15 43 3 50 -11 7 -10 16 8 47 14 25
22 65 26 119 3 44 11 94 17 110 6 16 15 47 20 69 5 22 23 105 40 185 17 80 33
159 36 175 3 17 12 44 19 60 8 17 21 66 30 110 8 43 19 82 24 85 4 3 11 19 13
35 3 17 15 53 25 81 11 28 23 68 27 88 4 20 11 36 16 36 6 0 10 22 10 49 0 30
5 53 14 60 8 7 18 27 21 44 4 18 16 46 26 63 10 17 19 41 19 52 0 26 59 176
71 180 5 2 9 14 9 27 0 12 7 28 15 35 8 6 20 38 26 71 7 38 17 59 25 59 9 0
14 11 14 28 0 15 11 47 25 71 14 23 25 49 25 56 0 8 11 27 25 43 14 17 25 35
25 41 0 19 43 95 67 118 13 12 23 30 23 40 0 10 11 35 25 55 14 20 25 46 25
57 0 10 4 21 8 23 13 5 72 98 72 113 0 15 59 107 73 113 4 2 7 10 7 17 0 8 6
18 13 22 7 4 23 25 36 46 12 20 28 37 35 37 7 0 21 18 32 40 10 22 25 40 32
40 6 0 12 6 12 14 0 7 18 33 40 56 22 23 40 51 40 62 0 11 9 22 20 25 10 3 22
14 26 25 3 12 84 99 180 195 96 95 174 180 174 187 0 8 17 25 38 37 20 13 46
32 57 42 11 10 37 27 57 38 20 10 39 27 43 36 6 17 98 83 116 83 5 0 9 6 9 13
0 6 18 21 40 31 22 11 40 23 40 28 0 4 9 8 19 8 11 0 21 3 23 8 6 13 98 72
114 72 9 0 29 12 44 28 66 64 93 85 114 87 27 3 66 26 66 38 0 5 7 6 16 3 17
-7 64 16 104 50 14 12 38 25 54 28 17 4 41 19 55 34 16 17 26 22 29 14 2 -7
20 -11 45 -11 31 2 35 3 14 6 -15 3 -33 13 -40 24 -16 26 -90 26 -140 -1 -49
-26 -55 -25 -102 15 -38 33 -39 35 -18 41 12 3 25 15 28 25 7 22 18 24 44 7
15 -9 23 -9 35 1 9 7 13 17 11 22 -20 31 129 39 222 12 80 -23 203 -28 240
-10 15 8 57 20 91 27 35 7 66 19 69 27 3 9 24 13 63 13 55 0 113 19 204 66 19
10 31 11 36 4 4 -7 15 -6 33 3 22 10 27 19 27 50 0 20 5 37 10 37 6 0 10 -18
10 -40 0 -29 4 -40 15 -40 11 0 15 12 15 45 0 36 5 51 25 69 14 13 25 27 25
32 0 8 25 23 68 41 7 3 12 -2 12 -11 0 -24 20 -19 48 11 23 25 26 26 32 9 5
-17 9 -15 37 13 36 35 43 38 43 14 0 -14 2 -14 21 3 18 16 40 19 160 22 76 2
139 8 139 12 0 5 90 8 200 7 110 -1 200 -5 200 -8z m-2000 -549 c0 -5 -5 -10
-11 -10 -5 0 -7 5 -4 10 3 6 8 10 11 10 2 0 4 -4 4 -10z m6768 -12022 c-18
-159 -361 -817 -590 -1132 -32 -45 -85 -119 -118 -166 -56 -81 -201 -264 -319
-402 -130 -153 -442 -455 -611 -592 -232 -188 -552 -409 -710 -492 -30 -16
-78 -43 -106 -60 -47 -30 -515 -264 -527 -264 -3 0 -50 -21 -104 -46 -234
-110 -794 -301 -1163 -395 -347 -89 -902 -178 -989 -158 -67 15 -139 56 -156
89 -36 69 51 155 171 167 30 3 54 10 54 14 0 5 10 9 23 9 12 0 54 7 92 16 89
19 219 42 280 50 17 2 48 7 70 13 22 5 85 18 140 30 92 19 165 36 270 61 22 5
69 16 105 24 36 7 92 21 125 31 33 9 87 23 120 31 33 8 70 21 82 29 12 8 28
15 34 15 7 0 31 9 53 19 23 11 70 29 106 42 36 12 81 33 100 46 19 13 41 23
48 23 8 0 42 16 76 35 35 19 68 35 75 35 6 0 30 8 54 19 69 31 203 81 215 81
7 0 12 5 12 10 0 6 7 10 16 10 20 0 46 11 284 123 223 105 255 121 260 127 3
3 21 12 40 20 19 8 37 16 40 19 8 9 43 30 75 44 17 8 44 25 60 39 17 13 48 32
70 42 22 10 54 29 70 41 17 12 33 23 37 24 5 0 36 24 70 52 35 28 77 57 95 65
18 8 37 23 43 34 6 11 17 20 25 20 7 0 15 4 17 8 5 14 128 92 144 92 8 0 26
11 40 25 14 14 27 25 29 25 10 0 4 -37 -7 -48 -9 -9 -9 -12 3 -12 13 0 93 51
109 70 3 3 39 33 80 67 202 165 520 503 721 768 102 134 348 509 415 634 14
25 50 89 80 141 30 52 86 158 125 235 85 168 104 195 131 195 18 0 20 -5 16
-42z m-8128 -978 c0 -5 -2 -10 -4 -10 -3 0 -8 5 -11 10 -3 6 -1 10 4 10 6 0
11 -4 11 -10z"/>
<path d="M5905 15613 c-87 -6 -362 -42 -443 -58 -399 -80 -777 -224 -1085
-414 -263 -161 -414 -281 -642 -506 -394 -391 -726 -968 -928 -1615 -48 -151
-111 -377 -131 -465 -96 -430 -151 -774 -186 -1150 -6 -66 -15 -164 -20 -218
-11 -105 -13 -319 -4 -352 5 -18 12 -20 89 -17 56 2 85 0 85 -7 0 -6 18 -11
40 -11 22 0 40 5 40 10 0 6 73 10 200 10 171 0 200 2 200 15 0 13 42 15 320
15 l320 0 0 -25 c0 -22 4 -25 40 -25 l40 0 0 40 0 40 40 0 c29 0 40 -4 40 -15
0 -11 11 -15 40 -15 36 0 40 -2 40 -25 0 -22 4 -25 40 -25 36 0 40 3 40 25 0
23 4 25 40 25 36 0 40 3 40 25 0 23 4 25 40 25 22 0 40 -4 40 -10 0 -6 33 -10
80 -10 64 0 80 -3 80 -15 0 -11 11 -15 40 -15 l40 0 0 55 0 55 40 0 40 0 0
-55 0 -55 80 0 80 0 0 55 0 55 40 0 c22 0 40 5 40 10 0 6 18 10 40 10 22 0 40
-4 40 -10 0 -5 -18 -10 -40 -10 l-40 0 0 -40 0 -40 40 0 c29 0 40 -4 40 -15 0
-11 11 -15 40 -15 29 0 40 4 40 15 0 11 11 15 40 15 l40 0 0 40 c0 38 2 40 30
40 29 0 30 1 30 48 0 39 -5 53 -25 72 -20 18 -28 21 -37 12 -21 -21 -31 -13
-14 13 15 23 15 25 1 25 -9 0 -13 -5 -9 -11 4 -8 0 -9 -15 -4 -14 4 -21 2 -21
-7 0 -10 -3 -9 -10 2 -8 12 -10 11 -10 -7 0 -13 5 -23 12 -23 6 0 9 -2 6 -5
-13 -13 -35 8 -32 32 2 22 0 24 -24 20 -23 -5 -25 -4 -9 8 23 16 22 22 -7 29
-13 3 -27 13 -30 22 -6 15 -4 15 18 0 14 -9 31 -16 38 -16 34 1 -53 34 -92 35
-33 0 -45 5 -45 15 0 28 -28 40 -52 24 -27 -17 -31 -7 -6 12 17 11 16 13 -7
18 -14 2 -36 7 -50 10 -14 3 -34 12 -45 21 -18 14 -17 14 13 0 18 -9 39 -14
45 -11 7 2 6 5 -4 5 -41 2 -330 248 -368 314 -12 20 -19 37 -16 37 4 0 37 -29
73 -63 130 -123 197 -174 241 -182 23 -4 48 -16 58 -28 18 -22 22 -22 353 -22
184 0 362 -3 395 -7 l60 -8 -102 54 c-115 61 -136 73 -283 165 -112 70 -281
185 -475 325 -301 217 -824 575 -886 606 -55 28 -157 52 -232 54 -64 1 -94 18
-43 24 44 6 207 -28 275 -56 37 -16 141 -79 231 -142 91 -62 199 -136 240
-165 156 -107 219 -151 345 -243 337 -247 563 -402 592 -407 10 -1 17 -8 15
-15 -1 -6 3 -10 10 -7 7 2 12 10 10 16 -1 7 3 9 9 6 7 -5 8 -10 0 -18 -7 -7
15 -26 77 -63 48 -29 95 -53 104 -54 9 0 18 -6 21 -12 3 -9 11 -7 28 7 l24 20
-19 -22 c-18 -22 -18 -22 10 -29 16 -4 43 -17 59 -29 17 -12 38 -20 49 -17 11
2 16 0 12 -6 -3 -6 11 -16 31 -22 21 -6 47 -16 58 -21 29 -13 115 -38 115 -33
0 3 -10 9 -22 15 -18 7 -14 8 20 4 25 -3 42 -1 42 5 0 5 10 10 21 10 13 0 41
19 66 45 35 36 50 45 78 45 19 0 35 -4 35 -10 0 -5 18 -10 40 -10 22 0 40 -4
40 -9 0 -5 36 -12 80 -16 58 -5 80 -11 80 -21 0 -11 18 -14 80 -14 47 0 80 -4
80 -10 0 -5 18 -10 40 -10 22 0 40 5 40 10 0 6 18 10 40 10 22 0 40 -4 40 -10
0 -5 -18 -10 -40 -10 -29 0 -40 -4 -40 -15 0 -12 16 -15 80 -15 64 0 80 3 80
15 0 13 20 15 120 15 l120 0 0 40 0 40 120 0 120 0 0 40 0 40 80 0 c47 0 80 4
80 10 0 6 73 10 200 10 127 0 200 -4 200 -10 0 -6 -47 -10 -120 -10 -100 0
-120 -2 -120 -15 0 -13 24 -15 160 -15 136 0 160 -2 160 -15 0 -11 11 -15 40
-15 22 0 40 -4 40 -10 0 -5 18 -10 40 -10 38 0 40 -2 40 -30 0 -28 2 -30 39
-30 22 0 42 6 45 13 3 8 11 5 24 -10 16 -18 31 -23 66 -23 l46 0 0 40 c0 22 5
40 10 40 6 0 10 -13 10 -30 l0 -30 80 0 c47 0 80 -4 80 -10 0 -5 18 -10 40
-10 22 0 40 5 40 10 0 6 73 10 200 10 127 0 200 -4 200 -10 0 -5 -18 -10 -40
-10 -29 0 -40 -4 -40 -15 0 -11 12 -15 50 -15 36 0 52 4 56 15 4 8 17 15 30
15 19 0 24 5 24 24 0 23 5 25 48 28 l47 3 3 53 c2 28 7 52 13 52 5 0 9 36 9
80 0 73 2 80 20 80 15 0 20 7 20 25 0 23 4 25 40 25 29 0 40 4 40 15 0 8 5 15
10 15 6 0 10 16 10 35 0 65 64 110 92 65 7 -11 21 -20 30 -20 12 0 18 -8 18
-22 0 -26 102 -125 109 -106 4 13 -15 207 -31 303 -18 113 -38 267 -58 445
-19 168 -34 260 -80 483 -20 96 -24 114 -74 272 -116 375 -301 766 -475 1004
-26 37 -53 76 -59 87 -13 24 -110 149 -187 240 -102 121 -359 370 -474 459
-117 92 -266 195 -281 195 -5 0 -10 5 -10 10 0 6 -5 10 -11 10 -6 0 -23 9 -39
20 -117 83 -418 227 -595 285 -350 113 -683 176 -920 173 -77 -1 -162 -3 -190
-5z m3215 -3893 c0 -22 -4 -40 -10 -40 -5 0 -10 18 -10 40 0 22 5 40 10 40 6
0 10 -18 10 -40z m-4346 -11 c-3 -5 -10 -7 -15 -3 -5 3 -7 10 -3 15 3 5 10 7
15 3 5 -3 7 -10 3 -15z m546 -212 c13 -5 13 -6 -1 -6 -8 -1 -24 6 -35 15 -19
15 -19 15 1 6 11 -5 27 -12 35 -15z m37 8 c0 -8 -4 -12 -9 -9 -5 3 -6 10 -3
15 9 13 12 11 12 -6z m-27 -39 c-7 -7 -13 -7 -20 0 -6 6 -3 10 10 10 13 0 16
-4 10 -10z m-730 -128 c0 -6 -6 -5 -15 2 -8 7 -15 14 -15 16 0 2 7 1 15 -2 8
-4 15 -11 15 -16z m989 8 c9 -10 9 -16 1 -21 -6 -4 -14 -4 -17 -1 -4 3 0 6 7
6 9 0 7 5 -6 15 -10 8 -14 15 -8 15 6 0 17 -6 23 -14z m86 -46 c3 -5 1 -10 -4
-10 -6 0 -11 5 -11 10 0 6 2 10 4 10 3 0 8 -4 11 -10z m-895 -64 c0 -2 -7 -7
-16 -10 -8 -3 -12 -2 -9 4 6 10 25 14 25 6z m80 -56 c0 -5 -2 -10 -4 -10 -3 0
-8 5 -11 10 -3 6 -1 10 4 10 6 0 11 -4 11 -10z m-2220 -290 c0 -5 -5 -10 -11
-10 -5 0 -7 5 -4 10 3 6 8 10 11 10 2 0 4 -4 4 -10z m800 0 c0 -5 -18 -10 -40
-10 -22 0 -40 5 -40 10 0 6 18 10 40 10 22 0 40 -4 40 -10z"/>
<path d="M8630 14399 c0 -5 5 -7 10 -4 6 3 10 -1 10 -10 0 -17 70 -115 82
-115 4 0 8 -9 8 -19 0 -11 4 -22 9 -25 15 -9 70 -110 159 -291 80 -161 100
-208 185 -435 43 -117 102 -315 117 -395 6 -33 19 -94 29 -135 11 -41 27 -111
36 -155 10 -44 32 -143 51 -220 39 -167 79 -364 104 -524 11 -64 26 -156 34
-206 32 -189 90 -661 111 -900 41 -456 47 -591 46 -1057 0 -257 -5 -543 -11
-635 -13 -215 -48 -634 -60 -738 -33 -277 -63 -507 -71 -550 -5 -27 -21 -122
-35 -210 -14 -88 -29 -185 -34 -215 -17 -106 -69 -378 -89 -461 -11 -46 -29
-129 -41 -184 -23 -104 -75 -308 -109 -430 -11 -38 -23 -81 -27 -95 -16 -58
-86 -258 -103 -295 -10 -22 -22 -51 -26 -65 -4 -14 -11 -30 -16 -36 -5 -6 -20
-41 -34 -79 -30 -79 -145 -308 -157 -313 -4 -2 -8 -10 -8 -17 0 -7 -17 -42
-38 -76 -21 -35 -47 -83 -57 -107 -10 -23 -22 -42 -27 -42 -4 0 -8 -5 -8 -11
0 -6 -9 -22 -19 -36 -11 -13 -17 -31 -14 -40 5 -12 13 -7 39 22 19 20 34 42
34 49 0 8 6 16 14 19 8 3 26 28 42 56 15 28 31 51 36 51 5 0 17 20 28 44 10
25 28 50 39 56 12 6 20 14 19 18 -1 7 40 102 49 112 2 2 8 -2 13 -10 8 -12 10
-11 10 6 0 12 10 43 22 70 12 27 22 56 22 64 1 8 7 14 15 12 8 -2 18 3 22 10
7 10 9 10 9 1 0 -7 7 -13 15 -13 8 0 15 6 15 13 0 10 39 108 103 257 18 42 87
240 113 325 60 194 161 627 204 875 12 69 28 159 35 200 8 41 19 109 25 150 5
41 15 104 20 140 15 96 76 578 89 705 56 542 84 1116 77 1605 -8 527 -29 1002
-53 1165 -2 17 -11 91 -19 165 -8 74 -19 156 -24 182 -5 26 -7 53 -5 61 3 7
-1 30 -10 50 -8 20 -15 59 -15 87 0 27 -4 69 -10 92 -5 24 -16 79 -24 123 -25
134 -66 338 -76 375 -5 19 -18 80 -30 135 -12 55 -25 114 -30 130 -5 17 -21
75 -35 130 -35 129 -101 346 -125 410 -66 176 -105 279 -132 340 -36 84 -185
384 -202 405 -6 8 -20 31 -30 50 -11 19 -30 48 -43 63 -13 16 -23 33 -23 38 0
6 -11 20 -25 33 -14 13 -25 30 -25 38 0 9 -9 18 -20 21 -13 3 -20 14 -20 30 0
13 -9 32 -21 43 -12 10 -28 32 -36 49 -9 16 -22 34 -29 38 -8 4 -14 14 -14 21
0 8 -7 17 -16 20 -21 8 -24 8 -24 -5z"/>
<path d="M9913 12200 c0 -25 2 -35 4 -22 2 12 2 32 0 45 -2 12 -4 2 -4 -23z"/>
<path d="M7280 11425 c0 -11 11 -15 40 -15 29 0 40 4 40 15 0 11 -11 15 -40
15 -29 0 -40 -4 -40 -15z"/>
<path d="M7920 11265 c0 -11 11 -15 40 -15 29 0 40 4 40 15 0 11 -11 15 -40
15 -29 0 -40 -4 -40 -15z"/>
<path d="M5780 11251 c8 -5 26 -12 40 -15 l25 -7 -25 15 c-14 9 -32 15 -40 15
-13 0 -13 -1 0 -8z"/>
<path d="M5848 11253 c6 -2 18 -2 25 0 6 3 1 5 -13 5 -14 0 -19 -2 -12 -5z"/>
<path d="M4807 11223 c-3 -5 6 -9 20 -10 19 -1 22 1 12 8 -17 11 -26 11 -32 2z"/>
<path d="M5868 11223 c7 -3 16 -2 19 1 4 3 -2 6 -13 5 -11 0 -14 -3 -6 -6z"/>
<path d="M6675 11190 c-4 -6 5 -10 19 -10 14 0 26 5 26 10 0 6 -9 10 -19 10
-11 0 -23 -4 -26 -10z"/>
<path d="M6473 11183 c15 -2 39 -2 55 0 15 2 2 4 -28 4 -30 0 -43 -2 -27 -4z"/>
<path d="M6378 11173 c7 -3 16 -2 19 1 4 3 -2 6 -13 5 -11 0 -14 -3 -6 -6z"/>
<path d="M4985 11154 l30 -15 -40 6 c-31 5 -37 4 -28 -5 8 -9 27 -10 60 -5
l48 7 -45 14 c-56 17 -63 16 -25 -2z"/>
<path d="M6545 11140 c-16 -7 -17 -9 -3 -9 9 -1 20 4 23 9 7 11 7 11 -20 0z"/>
<path d="M5140 11110 c0 -5 4 -10 9 -10 6 0 13 5 16 10 3 6 -1 10 -9 10 -9 0
-16 -4 -16 -10z"/>
<path d="M6968 11103 c7 -3 16 -2 19 1 4 3 -2 6 -13 5 -11 0 -14 -3 -6 -6z"/>
<path d="M7168 11103 c6 -2 18 -2 25 0 6 3 1 5 -13 5 -14 0 -19 -2 -12 -5z"/>
<path d="M5238 11093 c6 -2 18 -2 25 0 6 3 1 5 -13 5 -14 0 -19 -2 -12 -5z"/>
<path d="M5272 11084 c-8 -8 2 -10 36 -6 60 6 63 9 14 14 -22 2 -44 -2 -50 -8z"/>
<path d="M7018 11093 c7 -3 16 -2 19 1 4 3 -2 6 -13 5 -11 0 -14 -3 -6 -6z"/>
<path d="M5120 11065 c0 -21 5 -25 30 -25 17 0 30 1 30 3 0 2 -13 13 -30 25
l-30 23 0 -26z"/>
<path d="M7133 11083 c9 -2 23 -2 30 0 6 3 -1 5 -18 5 -16 0 -22 -2 -12 -5z"/>
<path d="M5208 11073 c7 -3 16 -2 19 1 4 3 -2 6 -13 5 -11 0 -14 -3 -6 -6z"/>
<path d="M7293 11073 c15 -2 37 -2 50 0 12 2 0 4 -28 4 -27 0 -38 -2 -22 -4z"/>
<path d="M5360 11060 c0 -5 5 -10 11 -10 5 0 7 5 4 10 -3 6 -8 10 -11 10 -2 0
-4 -4 -4 -10z"/>
<path d="M5215 11050 c-13 -5 -14 -9 -5 -9 8 0 24 4 35 9 13 5 14 9 5 9 -8 0
-24 -4 -35 -9z"/>
<path d="M5277 11030 c6 -22 18 -26 29 -9 3 6 0 15 -7 20 -22 14 -28 11 -22
-11z"/>
<path d="M5120 10944 c0 -12 10 -14 52 -12 74 4 77 28 4 28 -44 0 -56 -3 -56
-16z"/>
<path d="M9900 10871 c0 -6 5 -13 10 -16 6 -3 10 1 10 9 0 9 -4 16 -10 16 -5
0 -10 -4 -10 -9z"/>
<path d="M2750 10785 c0 -8 5 -15 10 -15 6 0 10 7 10 15 0 8 -4 15 -10 15 -5
0 -10 -7 -10 -15z"/>
<path d="M8488 10733 c6 -2 18 -2 25 0 6 3 1 5 -13 5 -14 0 -19 -2 -12 -5z"/>
<path d="M8618 10723 c12 -2 32 -2 45 0 12 2 2 4 -23 4 -25 0 -35 -2 -22 -4z"/>
<path d="M8987 5693 c-4 -3 -7 -11 -7 -17 0 -6 5 -5 12 2 6 6 9 14 7 17 -3 3
-9 2 -12 -2z"/>
<path d="M8927 5573 c-4 -3 -7 -11 -7 -17 0 -6 5 -5 12 2 6 6 9 14 7 17 -3 3
-9 2 -12 -2z"/>
<path d="M3921 3294 c0 -11 3 -14 6 -6 3 7 2 16 -1 19 -3 4 -6 -2 -5 -13z"/>
</g>
</svg>
